<?xml version="1.0" standalone="yes"?>
<svg xmlns="http://www.w3.org/2000/svg" width="420" height="420">
<path style="fill:#090908; stroke:none;" d="M0 0L0 420L68 420C70.3181 408.769 73.8803 397.382 78.7809 387C82.1476 379.868 88.1127 371.968 88.8951 364C91.0452 342.101 86 319.02 86 297C86 291.32 84.2646 284.494 85.537 279C87.8833 268.87 97.8018 270 106 270C104.18 256.485 92.038 229.735 108 221L116 246C121.638 226.933 113.458 201.377 132 188C133.47 194.859 148.619 188.55 153 186.806C166.357 181.487 177.871 182.358 192 179.611C201.292 177.804 209.04 172.183 218 170L218 171L204 180C227.792 183.007 254.198 173.751 266 151L267 151L264 166C270.328 163.665 276.067 160.272 279 154L281 154L299.182 205L304 243L312 221C327.894 229.697 315.825 256.448 314 270C321.283 270 331.107 269.067 333.566 278.001C335.403 284.673 333.033 292.236 333.001 299C332.891 321.779 328.082 345.329 329.383 368C329.728 374.022 334.494 380.514 336.85 386C341.617 397.102 345.553 408.145 348 420L420 420L420 0L0 0z"/>
<path style="fill:#8e6b53; stroke:none;" d="M148 117L178 94.865L198 83L188 82L224 69C217.238 66.1889 207.443 70.5981 201 73.0648C180.875 80.7694 156.777 96.6624 148 117M175 71L176 72L175 71M172 72L173 73L172 72M169 73L170 74L169 73M153 81L153 82L168 75L153 81M144 100L165 84.4275L184 74C168.197 75.2924 152.862 87.42 144 100M151 82L148 84L148 85L152 83L151 82M168 124C179.206 124.481 186.019 126.191 195 118L195 120L212 103.039L233 82C224.872 82.349 214.787 81.7566 207 84.0432C190.722 88.8233 172.171 107.425 168 124M234 96C241.481 94.5516 246.782 87.9937 251 82C242.02 82.0813 236.037 87.1243 234 96M135 95L136 96L135 95M138 98L141 97L138 98M266 97C258.102 104.416 253.188 113.427 251 124C258.047 121.679 268.566 104.401 266 97M136 98L137 99L136 98M244 100C235.614 107.313 225.05 117.471 221 128C227.988 124.741 246.282 108.695 244 100z"/>
<path style="fill:#090908; stroke:none;" d="M195 117L196 118L195 117z"/>
<path style="fill:#8e6b53; stroke:none;" d="M271 123L272 124L271 123M269 127L270 128L269 127M268 129L269 130L268 129M267 131L268 132L267 131M266 133L267 134L266 133M265 135L266 136L265 135M266 151C251.633 169.856 233.679 181 210 181L210 182L214 182L214 183L211 183C213.018 190.806 221.153 187.433 227 185.964C239.187 182.902 252.18 174.897 260.895 165.91C264.411 162.285 269.271 155.783 266 151M279 154L265 165C268.046 177.573 277.979 171.444 280 161L291 179L292 179L281 154L279 154z"/>
<path style="fill:#9b989a; stroke:none;" d="M280 161C277.831 167.791 266.401 179.36 266 166L262 164C252.278 173.303 240.168 182.112 227 185.711C220.61 187.458 214.315 190.117 211 183L214 183L214 182C201.388 180.512 186.964 188.959 175 193L178 182L158 192L158 193L171 187L173 193L167 193L167 194L180 196L179 193L209 186C211.036 192.96 222.008 189 227 187.782C236.192 185.541 244.297 180.285 252 174.986C254.238 173.447 258.553 168.875 261.528 169.5C263.935 170.006 265.751 174.157 267 176C274.017 173.935 279.049 169.704 282 163L283 163L285 167L286 167L280 161z"/>
<path style="fill:#d9ab8c; stroke:none;" d="M282 163C278.128 169.089 273.652 173.129 267 176C265.813 173.516 264.206 169.42 260.907 169.306C256.922 169.169 252.12 174.237 249 176.329C241.15 181.595 233.249 186.017 224 188.231C218.838 189.466 212.244 191.249 209 186L179 193C181.096 196.722 188.678 199.697 185.802 204.852C182.852 210.138 175.181 204.935 171 204.015C159.787 201.548 151.405 207.808 141.054 207.304C138.017 207.156 135.892 203.913 133 203C133 226.194 134.584 247.227 139 270L134 270L134 271L286 271L286 270L281 270C283.009 259.64 286.176 248.47 286.91 238C287.819 225.048 285.705 211.867 286.514 199C287.272 186.94 292.072 172.564 282 163z"/>
<path style="fill:#8e6b53; stroke:none;" d="M263 165L264 166L263 165M220 168L218 169L218 170L220 168z"/>
<path style="fill:#9b989a; stroke:none;" d="M286 168L286 171L287 171L286 168z"/>
<path style="fill:#8e6b53; stroke:none;" d="M175 181L175 182L178 182L175 193L208 181L208 180L204 180L218 171L203 175.935L175 181z"/>
<path style="fill:#9b989a; stroke:none;" d="M287.333 171.667L287.667 172.333L287.333 171.667M288.333 174.667L288.667 175.333L288.333 174.667M289 176L286.91 237L281 270C286.785 270.457 297.385 273.409 302.582 269.972C313.374 262.836 305.417 244.013 318 238L318 243L319 243L319 234C306.859 239.781 304.668 257.625 303 270L288 270C290.404 251.08 289.87 231.773 292.425 213C294.035 201.172 297.794 186.058 289 176z"/>
<path style="fill:#8e6b53; stroke:none;" d="M132 188C113.321 197.336 120.043 229.02 116 246L112 234L102 228C100.003 235.526 107.517 236.999 110.427 243.004C114.074 250.526 115.293 261.753 117 270L132 270C130.622 252.569 128.198 235.556 127.996 218C127.91 210.503 127.798 200.679 138 201C136.239 211.693 148.289 204.843 154 204L154 203L138 205L138 204C150.745 195.683 160.189 194.99 175 195L175 194L158 193L158 192L172 183C163.469 177.986 152.74 187.124 144 189.37C139.642 190.491 134.805 192.323 132 188M292 180L292 183L293 183L292 180M293 184L293 187L294 187L293 184z"/>
<path style="fill:#d9ab8c; stroke:none;" d="M172 186L173 187L172 186M162 192L162 193L173 193L171 187L162 192z"/>
<path style="fill:#8e6b53; stroke:none;" d="M294 188L294 191L295 191L294 188M295 192L288 270L303 270C304.734 261.62 305.983 249.455 310.14 242.015C313.251 236.445 319.932 235.28 318 228L309 233L308 233L309 237L307 236L308 239L304 243C300.002 226.215 303.594 207.787 295 192z"/>
<path style="fill:#9b989a; stroke:none;" d="M250 193L250 194L253 194L250 193z"/>
<path style="fill:#8e6b53; stroke:none;" d="M253 193L247 194L247 195L253 193z"/>
<path style="fill:#9b989a; stroke:none;" d="M254.667 193.333L255.333 193.667L254.667 193.333z"/>
<path style="fill:#8e6b53; stroke:none;" d="M256 193L256 194L264 195L256 193z"/>
<path style="fill:#9b989a; stroke:none;" d="M259.667 193.333L260.333 193.667L259.667 193.333z"/>
<path style="fill:#090908; stroke:none;" d="M138 204C142.922 208.416 153.85 202.513 160 201.553C165.829 200.644 171.555 203.062 177 204.706C179.467 205.451 183.467 206.153 184.503 202.867C186.074 197.884 175.272 195.359 172 195.04C159.44 193.815 147.728 195.268 138 204z"/>
<path style="fill:#9b989a; stroke:none;" d="M245.667 194.333L246.333 194.667L245.667 194.333z"/>
<path style="fill:#090908; stroke:none;" d="M282 205C274.082 195.45 259.582 193.678 248 195.09C244.751 195.486 234.8 197.41 235.256 201.999C235.602 205.473 239.396 205.643 242.001 205.006C247.624 203.631 253.009 200.858 259 201.414C266.267 202.09 275.134 207.65 282 205z"/>
<path style="fill:#9b989a; stroke:none;" d="M264.667 194.333L265.333 194.667L264.667 194.333z"/>
<path style="fill:#8e6b53; stroke:none;" d="M176 195L176 196C182.067 199.117 188.601 205.601 177 205L177 206C190.28 209.117 186.344 197.458 176 195z"/>
<path style="fill:#9b989a; stroke:none;" d="M241 195L242 196L241 195z"/>
<path style="fill:#8e6b53; stroke:none;" d="M237 197L237 198L245 196L237 197M265 195L265 196L282 204L282 205L266 203C268.603 204.415 281.267 210.43 281.963 204.941C282.733 198.874 269.241 195.425 265 195z"/>
<path style="fill:#9b989a; stroke:none;" d="M269 195L270 196L269 195M181 196L182 197L181 196M271 196L272 197L271 196M183 197L184 198L183 197M236 197L237 198L236 197M274 197L275 198L274 197M234 198L233 200L234 198z"/>
<path style="fill:#8e6b53; stroke:none;" d="M235 198C231.382 205.097 236.486 207.529 243 206L243 205C236.834 205.316 236.211 203.22 235 198z"/>
<path style="fill:#9b989a; stroke:none;" d="M276 198L277 199L276 198M186 199L187 200L186 199M277 199L278 200L277 199M132 270L117 270C115.321 257.542 113.239 239.828 101 234L101 243L102 243L102 238C114.583 244.013 106.626 262.836 117.418 269.972C122.615 273.409 133.215 270.457 139 270L133 203L138 203C133.455 196.681 127.338 205.978 127.394 211C127.612 230.777 129.51 250.399 132 270M279 200L280 201L279 200z"/>
<path style="fill:#8e6b53; stroke:none;" d="M156 202L156 203L176 205C170.754 200.706 162.379 200.82 156 202M244 204L244 205L264 203C258.193 199.522 249.99 201.756 244 204z"/>
<path style="fill:#9b989a; stroke:none;" d="M280 201L281 202L280 201M154.667 203.333L155.333 203.667L154.667 203.333M168 203L168 204L171 204L168 203M249 203L249 204L252 204L249 203M264.667 203.333L265.333 203.667L264.667 203.333M282 203L283 204L282 203M150.667 204.333L151.333 204.667L150.667 204.333M173 204L174 205L173 204M186 204L187 205L186 204M233.333 204.667L233.667 205.333L233.333 204.667M246 204L247 205L246 204M268.667 204.333L269.333 204.667L268.667 204.333M147 205L148 206L147 205M176 205L177 206L176 205M243 205L244 206L243 205M272 205L273 206L272 205M137 206L138 207L137 206M144 206L145 207L144 206M178 206L179 207L178 206M185 206L186 207L185 206M234 206L235 207L234 206M241 206L242 207L241 206M275 206L276 207L275 206M282 206L283 207L282 206M138 207L139 208L138 207M142 207L143 208L142 207M180 207L180 208L185 208L180 207M235 207L235 208L240 208L235 207M277 207L278 208L277 207M281 207L282 208L281 207z"/>
<path style="fill:#bcbbbe; stroke:none;" d="M106 221L107 222L106 221z"/>
<path style="fill:#d9ab8c; stroke:none;" d="M107 221L102 226L110 234L111 234L107 221z"/>
<path style="fill:#9b989a; stroke:none;" d="M157 221L157 222L160 222L157 221z"/>
<path style="fill:#8e6b53; stroke:none;" d="M160 221L160 222L165 222L160 221z"/>
<path style="fill:#9b989a; stroke:none;" d="M165 221L165 222L168 222L165 221M252 221L252 222L255 222L252 221z"/>
<path style="fill:#8e6b53; stroke:none;" d="M255 221L255 222L260 222L255 221z"/>
<path style="fill:#9b989a; stroke:none;" d="M260 221L260 222L263 222L260 221z"/>
<path style="fill:#8e6b53; stroke:none;" d="M312 221L313 222L312 221z"/>
<path style="fill:#d9ab8c; stroke:none;" d="M313 221L311 231L318 226L317 223L313 221z"/>
<path style="fill:#bcbbbe; stroke:none;" d="M104 222L105 223L104 222z"/>
<path style="fill:#8e6b53; stroke:none;" d="M108 222L109 223L108 222z"/>
<path style="fill:#9b989a; stroke:none;" d="M153 222L154 223L153 222z"/>
<path style="fill:#8e6b53; stroke:none;" d="M154 222L154 223L157 223L154 222z"/>
<path style="fill:#090908; stroke:none;" d="M142 233L154 226C151.822 232.814 149.769 241.487 157 246C153.442 237.267 154.529 233.432 158 225C162.73 227.852 163.954 232.592 157 232C152.459 248.563 179.599 249.369 175 230L181 232L180 234L180 235L181 235L182 233L187 238C180.947 220.196 151.294 215.601 142 233z"/>
<path style="fill:#8e6b53; stroke:none;" d="M168.667 222.333L169.333 222.667L168.667 222.333z"/>
<path style="fill:#9b989a; stroke:none;" d="M170 222L171 223L170 222M249 222L250 223L249 222z"/>
<path style="fill:#8e6b53; stroke:none;" d="M250.667 222.333L251.333 222.667L250.667 222.333z"/>
<path style="fill:#090908; stroke:none;" d="M233 238L239 233C239.124 238.809 240.441 243.195 245 247C240.809 236.781 240.156 231.174 251 226C250.701 229.922 249.208 233.785 245 231L244 231C244.002 234.225 243.604 237.919 245.318 240.812C249.825 248.417 260.667 245.761 263.13 237.985C264.637 233.232 261.862 229.495 259 226L262 225L267 233L268 233L266 227L278 233C268.455 215.131 239.707 220.689 233 238z"/>
<path style="fill:#8e6b53; stroke:none;" d="M263 222L263 223L266 223L263 222z"/>
<path style="fill:#9b989a; stroke:none;" d="M266 222L267 223L266 222M312 222L309 235L314 222L312 222M108 223L109 224L108 223M150 223L151 224L150 223z"/>
<path style="fill:#8e6b53; stroke:none;" d="M151.667 223.333L152.333 223.667L151.667 223.333M171 223L171 224L180 228L180 227L171 223z"/>
<path style="fill:#9b989a; stroke:none;" d="M173 223L174 224L173 223M246 223L247 224L246 223z"/>
<path style="fill:#8e6b53; stroke:none;" d="M247.667 223.333L248.333 223.667L247.667 223.333M267 223L267 224L278 233L276 232L280 237C281.426 229.257 273.51 224.88 267 223z"/>
<path style="fill:#9b989a; stroke:none;" d="M269 223L270 224L269 223z"/>
<path style="fill:#8e6b53; stroke:none;" d="M311.333 223.667L311.667 224.333L311.333 223.667z"/>
<path style="fill:#9b989a; stroke:none;" d="M148 224L149 225L148 224z"/>
<path style="fill:#8e6b53; stroke:none;" d="M149.667 224.333L150.333 224.667L149.667 224.333z"/>
<path style="fill:#9b989a; stroke:none;" d="M175 224L176 225L175 224M244 224L245 225L244 224z"/>
<path style="fill:#8e6b53; stroke:none;" d="M245.667 224.333L246.333 224.667L245.667 224.333z"/>
<path style="fill:#9b989a; stroke:none;" d="M271 224L272 225L271 224M316 224L317 225L316 224z"/>
<path style="fill:#8e6b53; stroke:none;" d="M109.333 225.667L109.667 226.333L109.333 225.667z"/>
<path style="fill:#9b989a; stroke:none;" d="M146 225L147 226L146 225z"/>
<path style="fill:#8e6b53; stroke:none;" d="M140 237L144 232L142 233L142 232L149 225C143.499 226.871 138.866 230.846 140 237M158 225C152.903 233.594 155.44 237.945 156 247C164.679 248.097 168.301 246.903 176 243L174 248C180.571 244.633 180.636 238.604 181 232L175 230C176.777 239.719 166.885 251.629 158.515 240.892C154.326 235.519 158.711 230.585 158 225M163.667 225.333L164.333 225.667L163.667 225.333z"/>
<path style="fill:#9b989a; stroke:none;" d="M177 225L178 226L177 225M242 225L241 227L242 225z"/>
<path style="fill:#8e6b53; stroke:none;" d="M243.667 225.333L244.333 225.667L243.667 225.333M255 225L256 226L255 225M259 226C260.993 229.315 264.038 232.868 263.041 236.996C260.96 245.614 249.797 247.884 245.318 239.906C243.504 236.674 244 232.566 244 229L243 229C240.463 235.777 241.471 240.792 245 247L242 245C248.927 252.074 256.912 245.744 264 243L263 247C269.493 243.009 269.62 235.804 268 229L267 229L268 233L267 233L262 225L259 226z"/>
<path style="fill:#9b989a; stroke:none;" d="M273 225L274 226L273 225M102 226L107 230L102 226M144 226L145 227L144 226z"/>
<path style="fill:#8e6b53; stroke:none;" d="M153.333 226.667L153.667 227.333L153.333 226.667z"/>
<path style="fill:#bcbbbe; stroke:none;" d="M159.292 227.175C156.413 228.698 158.643 233.407 161.542 231.825C164.279 230.331 162.21 225.632 159.292 227.175z"/>
<path style="fill:#8e6b53; stroke:none;" d="M169 226L170 227L169 226z"/>
<path style="fill:#9b989a; stroke:none;" d="M178 226L179 227L178 226z"/>
<path style="fill:#8e6b53; stroke:none;" d="M242 226L243 227L242 226M250.333 226.667L250.667 227.333L250.333 226.667M265 226L266 227L265 226z"/>
<path style="fill:#9b989a; stroke:none;" d="M275 226L276 227L275 226M317 226L313 230L319 229L317 226z"/>
<path style="fill:#d9ab8c; stroke:none;" d="M101.333 227.667L101.667 228.333L101.333 227.667z"/>
<path style="fill:#9b989a; stroke:none;" d="M109.333 227.667L109.667 228.333L109.333 227.667M143 227L144 228L143 227z"/>
<path style="fill:#8e6b53; stroke:none;" d="M151 227L152 228L151 227z"/>
<path style="fill:#bcbbbe; stroke:none;" d="M152 227C140.575 234.025 139.618 241.847 154 246L152 227z"/>
<path style="fill:#8e6b53; stroke:none;" d="M240.667 227.333L241.333 227.667L240.667 227.333M247 227L248 228L247 227z"/>
<path style="fill:#9b989a; stroke:none;" d="M248 227L249 228L248 227z"/>
<path style="fill:#bcbbbe; stroke:none;" d="M250 227C241.534 230.599 251.156 234.901 250 227z"/>
<path style="fill:#8e6b53; stroke:none;" d="M266 227L267 228L266 227z"/>
<path style="fill:#9b989a; stroke:none;" d="M267 227L267 229L269 227L267 227M276 227L277 228L276 227z"/>
<path style="fill:#8e6b53; stroke:none;" d="M310.333 227.667L310.667 228.333L310.333 227.667z"/>
<path style="fill:#d9ab8c; stroke:none;" d="M318 227L319 228L318 227z"/>
<path style="fill:#9b989a; stroke:none;" d="M142 228L143 229L142 228M149 228L150 229L149 228M152 228L153 229L152 228M163 228L164 229L163 228z"/>
<path style="fill:#8e6b53; stroke:none;" d="M174.333 228.667L174.667 229.333L174.333 228.667M180 228L190 243C192.541 236.149 185.102 231.58 180 228z"/>
<path style="fill:#9b989a; stroke:none;" d="M181 228L182 229L181 228M238 228C233.515 229.933 216.34 240.72 230 243C227.933 235.482 236.444 234.396 238 228z"/>
<path style="fill:#8e6b53; stroke:none;" d="M239 228L240 229L239 228M245 228L246 229L245 228z"/>
<path style="fill:#bcbbbe; stroke:none;" d="M268 228L266 246C277.747 241.992 282.412 232.602 268 228z"/>
<path style="fill:#9b989a; stroke:none;" d="M270 228L271 229L270 228M277 228L278 229L277 228M141 229L142 230L141 229z"/>
<path style="fill:#8e6b53; stroke:none;" d="M147 229L148 230L147 229M152.333 229.667L152.667 230.333L152.333 229.667z"/>
<path style="fill:#9b989a; stroke:none;" d="M182 229C185.382 233.702 191.852 236.613 190 243C202.503 240.913 188.368 229.862 182 229z"/>
<path style="fill:#8e6b53; stroke:none;" d="M238 229L239 230L238 229z"/>
<path style="fill:#9b989a; stroke:none;" d="M244.333 229.667L244.667 230.333L244.333 229.667z"/>
<path style="fill:#8e6b53; stroke:none;" d="M272 229L273 230L272 229z"/>
<path style="fill:#9b989a; stroke:none;" d="M278 229L279 230L278 229M107 230L108 231L107 230z"/>
<path style="fill:#8e6b53; stroke:none;" d="M110.333 230.667L110.667 231.333L110.333 230.667z"/>
<path style="fill:#9b989a; stroke:none;" d="M140 230L141 231L140 230M146 230L147 231L146 230M163 230L164 231L163 230z"/>
<path style="fill:#8e6b53; stroke:none;" d="M237 230L238 231L237 230z"/>
<path style="fill:#9b989a; stroke:none;" d="M273 230L274 231L273 230M279 230L280 231L279 230z"/>
<path style="fill:#8e6b53; stroke:none;" d="M309.333 230.667L309.667 231.333L309.333 230.667z"/>
<path style="fill:#9b989a; stroke:none;" d="M312 230L313 231L312 230z"/>
<path style="fill:#d9ab8c; stroke:none;" d="M319 230L319 237L320 237L319 230M100 231L100 241L101 241L100 231z"/>
<path style="fill:#9b989a; stroke:none;" d="M108.333 231.667L108.667 232.333L108.333 231.667M139 231L138 234L139 231z"/>
<path style="fill:#8e6b53; stroke:none;" d="M151 231L151 235L152 235L151 231z"/>
<path style="fill:#9b989a; stroke:none;" d="M157 231L158 232L157 231z"/>
<path style="fill:#8e6b53; stroke:none;" d="M236 231L237 232L236 231M240 231L241 232L240 231z"/>
<path style="fill:#9b989a; stroke:none;" d="M250 231L251 232L250 231M280 231L282 234L280 231M110 232L111 233L110 232M158 232L159 233L158 232z"/>
<path style="fill:#8e6b53; stroke:none;" d="M235 232L236 233L235 232M245 232L246 233L245 232M249 232L250 233L249 232z"/>
<path style="fill:#9b989a; stroke:none;" d="M109 233L110 234L109 233z"/>
<path style="fill:#8e6b53; stroke:none;" d="M181 233L182 234L181 233M234 233C230.366 236.14 228.223 238.21 230 243L234 233M238 233L239 234L238 233z"/>
<path style="fill:#9b989a; stroke:none;" d="M110 234L111 235L110 234z"/>
<path style="fill:#bcbbbe; stroke:none;" d="M181 234L176 248L189 244L181 234z"/>
<path style="fill:#9b989a; stroke:none;" d="M182 234L183 235L182 234M237 234L239 236L237 234z"/>
<path style="fill:#bcbbbe; stroke:none;" d="M238 234L239 235L238 234M231 244L244 248L238 235L231 244z"/>
<path style="fill:#9b989a; stroke:none;" d="M308.333 235.667L308.667 236.333L308.333 235.667z"/>
<path style="fill:#8e6b53; stroke:none;" d="M151 236L152 242L153 242L151 236z"/>
<path style="fill:#d9ab8c; stroke:none;" d="M102 238C101.732 242.586 99.6698 250.977 104 254L106 270L117 271C113.663 262.399 111.305 240.676 102 238z"/>
<path style="fill:#9b989a; stroke:none;" d="M186 238L187 239L186 238M307 238L308 239L307 238z"/>
<path style="fill:#d9ab8c; stroke:none;" d="M303 271L314 269L313 266L315 266L314 263C319.515 258.359 318.513 244.509 318 238C308.695 240.676 306.337 262.399 303 271M319.333 238.667L319.667 239.333L319.333 238.667z"/>
<path style="fill:#9b989a; stroke:none;" d="M187 239L188 240L187 239M232 239L233 240L232 239z"/>
<path style="fill:#8e6b53; stroke:none;" d="M239 239L240 240L239 239z"/>
<path style="fill:#9b989a; stroke:none;" d="M151 240L152 241L151 240M180 240L181 241L180 240M239 240L240 241L239 240M268 240L269 241L268 240M152 242L153 243L152 242z"/>
<path style="fill:#8e6b53; stroke:none;" d="M240 242L241 243L240 242M153 243L154 246L155 246L153 243z"/>
<path style="fill:#9b989a; stroke:none;" d="M172 244L172 245L176 246C175.395 243.232 174.711 243.423 172 244z"/>
<path style="fill:#8e6b53; stroke:none;" d="M241 243L242 244L241 243z"/>
<path style="fill:#9b989a; stroke:none;" d="M261 243L264 246L261 243z"/>
<path style="fill:#8e6b53; stroke:none;" d="M101 244L102 245L101 244z"/>
<path style="fill:#9b989a; stroke:none;" d="M153 244L154 245L153 244M178 244L179 245L178 244M241 244L242 245L241 244M260 244L261 245L260 244M266 244L267 245L266 244M171 245L172 246L171 245M257 248L260 245L257 248M155 246L156 247L155 246M170 246L169 248L171 248L170 246M159 247L160 248L159 247M317 249L318 250L317 249M102 250L103 251L102 250M103 254L104 255L103 254M316 254L317 255L316 254M314 263L315 264L314 263z"/>
<path style="fill:#8e6b53; stroke:none;" d="M105 265L106 266L105 265z"/>
<path style="fill:#9b989a; stroke:none;" d="M313.333 266.667L313.667 267.333L313.333 266.667z"/>
<path style="fill:#8e6b53; stroke:none;" d="M314 266L315 267L314 266z"/>
<path style="fill:#9b989a; stroke:none;" d="M106.333 267.667L106.667 268.333L106.333 267.667M107.333 269.667L107.667 270.333L107.333 269.667M312.333 269.667L312.667 270.333L312.333 269.667z"/>
<path style="fill:#8e6b53; stroke:none;" d="M313 269L314 270L313 269z"/>
<path style="fill:#bcbbbe; stroke:none;" d="M88 348L89 348L86 280L87 280C91.4038 292.061 87.438 311.158 96 321L94 326L97 323L98 326L99 326L99 322L100 322L100 325L104 326L105 323L106 323L104 328L108 326L108 329L109 329C109 325.633 115.926 325 119 325L119 326L114 326L114 330L115 330L116 327L120 328L121 332L131 330L130 332L144 332L143 336L144 336L146 334L145 338L147 335L153 334L151 336L151 337C154.79 337.672 156.829 338.488 159 335L159 338L160 339L162 338L162 340L170 342L172 339L173 339L174 342L177 343C177 340.262 178.65 340.286 179 343L180 343L182 341L181 343L185 345L185 342L187 345L190 344L192 347L191 344L194 344C195.519 350.308 195.727 357.963 201.468 362.254C211.535 369.778 224.56 361.106 224 350L227 353L228 353L230 351L238 356L237 353L241 356L245 353L244 357C246.697 357.854 247.386 357.851 248 355L252 355L251 360L255 357L261 356L259 359L264 358L263 360L264 360L267 359C267.868 363.032 270.977 361.237 274 360L275 363L277 359L278 359L278 363L284 363L289 367L289 366L286 365L286 364L290 367L292 368L300 366L302 369L302 370L305 366L306 366L306 369L315 371L314 368L318 372C325.359 370.772 324.821 358.158 325.728 352C328.768 331.368 331 309.853 331 289L332 289L329 366C332.289 358.163 330.986 346.453 331 338C331.022 324.008 331.844 308.936 333.17 295C333.817 288.196 336.714 276.43 329.891 271.858C321.512 266.243 301.849 271 292 271C258.756 271 225.207 272.183 192 270.964C166.685 270.034 141.396 271.041 116 271C108.398 270.988 94.6617 266.697 88.419 272.514C82.8449 277.708 85.9188 286.497 85.9961 293C86.2145 311.357 88 329.656 88 348z"/>
<path style="fill:#9b989a; stroke:none;" d="M86 280L89.0147 344L89.7755 364L80.3086 384L68 420L72 420L89 371L90 371L92 413L93 413L93 410C106.56 420.692 130.241 416 147 416C191.409 416 236.14 414.586 280.412 416.829C291.531 417.392 303.941 418.031 315 416.866C317.929 416.557 324.151 412.639 326 414L327 414L329 382C335.784 393.623 341.266 406.571 343 420L348 420L338.15 389L329.213 368L332 289L331 289C331 309.776 328.76 331.465 325.576 352C324.591 358.348 325.099 369.845 318 372L314 368L315 371L306 366L305 366L302 370L302 369L304 368L300 366L292 368L290 367L286 364L286 365L289 366L289 367L284 363L282 365L281 365L278 363L278 359L277 359L275 363L274 360L267 359L263 360L264 358L262 360L261 360L259 359L261 356L255 357L251 360L252 355L248 355L244 357L245 353L241 356L237 353L238 356L230 351L228 353L227 353L224 350C222.628 359.643 211.793 370.488 201.468 361.552C196.125 356.927 195.887 350.207 194 344L191 344L192 347L190 344L187 345L185 342L185 345L184 342L181 343L182 341L180 343L179 343L178 340L177 343L173 339L172 339L170 342L162 340L162 338L160 339L159 338L159 335L158 338L151 337L151 336L153 334L145 338L146 334L144 336L143 336L144 332L130 332L131 330L130 330L121 332L120 328L116 327L115 330L114 330L114 326L119 326L119 325C115.64 325.052 109.592 325.181 109 329L108 329L108 326L104 328L106 323L105 323L104 326L100 325L100 322L99 322L99 326L98 326L97 323L94 326L96 321C88.3235 309.379 95.2439 289.855 86 280M331 286L333 289L333 286L331 286M102 323L103 324L102 323M107 324L108 325L107 324M112 324L109 325L109 326L113 325L112 324M121 325L122 326L121 325M121 330L126 328C123.387 326.502 121.646 326.988 121 330z"/>
<path style="fill:#bcbbbe; stroke:none;" d="M122 328L123 329L122 328z"/>
<path style="fill:#9b989a; stroke:none;" d="M131.333 328.667L131.667 329.333L131.333 328.667M127 329L128 330L127 329M138 330L138 331L142 331L142 330L138 330M152 332L153 333L152 332z"/>
<path style="fill:#bcbbbe; stroke:none;" d="M121 334L122 335L121 334M134 334L133 336L134 334M141 334L142 335L141 334z"/>
<path style="fill:#9b989a; stroke:none;" d="M157 334L158 335L157 334M154.333 335.667L154.667 336.333L154.333 335.667M160 335L161 336L160 335M163 335L165 338L163 335z"/>
<path style="fill:#bcbbbe; stroke:none;" d="M141 337L142 338L141 337z"/>
<path style="fill:#9b989a; stroke:none;" d="M167 338L170 340L170 339L167 338M175 339L176 340L175 339M194 341L196 343L194 341M220.333 346.667L220.667 347.333L220.333 346.667z"/>
<path style="fill:#bcbbbe; stroke:none;" d="M189 347L190 348L189 347z"/>
<path style="fill:#9b989a; stroke:none;" d="M225 347L226 348L225 347M223 348L221 350L221 351L223 348z"/>
<path style="fill:#bcbbbe; stroke:none;" d="M89 349L89 367L90 367L89 349z"/>
<path style="fill:#9b989a; stroke:none;" d="M230 349L232 351L230 349M242 351L243 352L242 351M233.333 352.667L233.667 353.333L233.333 352.667M253 354L254 355L253 354z"/>
<path style="fill:#bcbbbe; stroke:none;" d="M239 355L240 356L239 355z"/>
<path style="fill:#9b989a; stroke:none;" d="M255 355L256 356L255 355z"/>
<path style="fill:#bcbbbe; stroke:none;" d="M227 356L228 357L227 356M235 356L236 357L235 356z"/>
<path style="fill:#9b989a; stroke:none;" d="M262 356L261 358L262 356M266 357L267 358L266 357z"/>
<path style="fill:#bcbbbe; stroke:none;" d="M243 358L244 359L243 358z"/>
<path style="fill:#9b989a; stroke:none;" d="M269 358L270 359L269 358M272 359L273 360L272 359z"/>
<path style="fill:#bcbbbe; stroke:none;" d="M247 360L248 361L247 360M259 360L260 361L259 360M263 361L264 362L263 361z"/>
<path style="fill:#9b989a; stroke:none;" d="M281 361L279 362L279 363L281 361M284 361L285 362L284 361M287.667 362.333L288.333 362.667L287.667 362.333M291.333 363.667L291.667 364.333L291.333 363.667M303 363L304 364L303 363z"/>
<path style="fill:#bcbbbe; stroke:none;" d="M274 364L275 365L274 364z"/>
<path style="fill:#9b989a; stroke:none;" d="M293.333 364.667L293.667 365.333L293.333 364.667M296 364L297 365L296 364M303 365L304 366L303 365z"/>
<path style="fill:#bcbbbe; stroke:none;" d="M88.3333 367.667L88.6667 368.333L88.3333 367.667z"/>
<path style="fill:#9b989a; stroke:none;" d="M312 368L313 369L312 368z"/>
<path style="fill:#bcbbbe; stroke:none;" d="M87 369L88 370L87 369M289 369L290 370L289 369z"/>
<path style="fill:#9b989a; stroke:none;" d="M320 370L321 371L320 370z"/>
<path style="fill:#bcbbbe; stroke:none;" d="M329 370L330 371L329 370M86 371L87 372L86 371M89 371C82.8123 386.949 73.423 402.578 72 420L97 420L97 419C85.3658 408.033 95.2197 384.855 89 371M300 371L301 372L300 371M308 372L309 373L308 372M314 372L314 373L317 374L314 372M330 372L331 373L330 372M85 373L86 374L85 373M319 373L320 374L319 373M331 374L332 375L331 374M84 375L85 376L84 375M332 376L333 377L332 376M83 377L84 378L83 377M333 378L334 379L333 378M82 379L83 380L82 379M334 380L335 381L334 380M81 381L82 382L81 381M329 382C325.723 393.086 331.427 410.891 322 419L322 420L343 420C342.016 407.631 336.985 391.637 329 382M335 382L336 383L335 382M80 383L81 384L80 383M79 385L80 386L79 385M336 385L337 386L336 385M78.3333 387.667L78.6667 388.333L78.3333 387.667M337 387L338 388L337 387M77.3333 389.667L77.6667 390.333L77.3333 389.667M338 389L339 390L338 389M76 392L77 393L76 392M339 392L340 393L339 392M75.3333 394.667L75.6667 395.333L75.3333 394.667M340 394L341 395L340 394M74.3333 397.667L74.6667 398.333L74.3333 397.667M341 397L342 398L341 397M342.333 399.667L342.667 400.333L342.333 399.667M73 400L74 401L73 400M343.333 402.667L343.667 403.333L343.333 402.667M72 403L73 404L72 403M344.333 405.667L344.667 406.333L344.333 405.667M71.3333 406.667L71.6667 407.333L71.3333 406.667M70.3333 409.667L70.6667 410.333L70.3333 409.667M345 409L346 410L345 409z"/>
<path style="fill:#8e6b53; stroke:none;" d="M93 410C93.8771 426.02 124.345 420 136 420L276 420L311 420C318.178 420 324.316 420.316 326 412C309.164 420.945 286.99 416.403 268.325 416.264C229.23 415.973 190.111 416 151 416C131.396 416 110.255 419.383 93 410z"/>
<path style="fill:#bcbbbe; stroke:none;" d="M69.3333 413.667L69.6667 414.333L69.3333 413.667M346 413L347 414L346 413z"/>
<path style="fill:#9b989a; stroke:none;" d="M93 415L94 416L93 415M325 415L326 416L325 415z"/>
<path style="fill:#bcbbbe; stroke:none;" d="M68.3333 417.667L68.6667 418.333L68.3333 417.667z"/>
<path style="fill:#9b989a; stroke:none;" d="M324 417L325 418L324 417z"/>
<path style="fill:#bcbbbe; stroke:none;" d="M347.333 417.667L347.667 418.333L347.333 417.667z"/>
<path style="fill:#9b989a; stroke:none;" d="M95 418L96 419L95 418M323 418L324 419L323 418z"/>
</svg>
